<?xml version="1.0" standalone="no"?>
<!DOCTYPE svg PUBLIC "-//W3C//DTD SVG 1.1//EN" "http://www.w3.org/Graphics/SVG/1.1/DTD/svg11.dtd" >
<!--
2013-9-30: Created.
-->
<svg>
<metadata>
Created by iconfont
</metadata>
<defs>

<font id="iconfont" horiz-adv-x="1024" >
  <font-face
    font-family="iconfont"
    font-weight="500"
    font-stretch="normal"
    units-per-em="1024"
    ascent="896"
    descent="-128"
  />
    <missing-glyph />
    
    <glyph glyph-name="x" unicode="x" horiz-adv-x="1001"
d="M281 543q-27 -1 -53 -1h-83q-18 0 -36.5 -6t-32.5 -18.5t-23 -32t-9 -45.5v-76h912v41q0 16 -0.5 30t-0.5 18q0 13 -5 29t-17 29.5t-31.5 22.5t-49.5 9h-133v-97h-438v97zM955 310v-52q0 -23 0.5 -52t0.5 -58t-10.5 -47.5t-26 -30t-33 -16t-31.5 -4.5q-14 -1 -29.5 -0.5
t-29.5 0.5h-32l-45 128h-439l-44 -128h-29h-34q-20 0 -45 1q-25 0 -41 9.5t-25.5 23t-13.5 29.5t-4 30v167h911zM163 247q-12 0 -21 -8.5t-9 -21.5t9 -21.5t21 -8.5q13 0 22 8.5t9 21.5t-9 21.5t-22 8.5zM316 123q-8 -26 -14 -48q-5 -19 -10.5 -37t-7.5 -25t-3 -15t1 -14.5
t9.5 -10.5t21.5 -4h37h67h81h80h64h36q23 0 34 12t2 38q-5 13 -9.5 30.5t-9.5 34.5q-5 19 -11 39h-368zM336 498v228q0 11 2.5 23t10 21.5t20.5 15.5t34 6h188q31 0 51.5 -14.5t20.5 -52.5v-227h-327z" />
    

    
    <glyph glyph-name="heart" unicode="&#58893;" d="M314.964438 762.057405c-66.49853 0-125.121695-20.384259-173.931355-70.373791-101.726869-103.989399-101.726869-272.630261 0-376.679012 29.042453-29.758768 310.947961-282.601356 310.947961-282.601356 16.060791-16.47523 37.144992-24.691355 58.177004-24.691355 21.033036 0 42.072211 8.215102 58.122769 24.691355 0 0 308.351833 272.523837 311.636646 275.945773 101.716636 104.057961 101.716636 272.705985 0 376.695385-50.479695 51.655474-106.900705 77.289294-175.683255 77.289294-65.710584 0-139.022287-53.712319-193.764052-110.713544C453.990818 708.622402 382.954949 762.057405 314.964438 762.057405L314.964438 762.057405z"  horiz-adv-x="1024" />

    
    <glyph glyph-name="shanchu1" unicode="&#58907;" d="M512.01228 830.784696c-246.544139 0-446.409143-199.861934-446.409143-446.409143 0-246.542092 199.865004-446.406073 446.409143-446.406073s446.409143 199.865004 446.409143 446.406073C958.420399 630.922762 758.556419 830.784696 512.01228 830.784696zM702.846606 228.281449c9.875928-9.858532 10.128685-25.583678 0.567935-35.127032-9.562796-9.5454-25.321712-9.292644-35.196617 0.562818L512.01228 349.621005 355.806635 193.717236c-9.875928-9.855462-25.63382-10.108219-35.196617-0.562818-9.56075 9.543354-9.307993 25.269523 0.567935 35.127032l156.205645 155.903769-157.101037 156.790976c-9.875928 9.858532-10.128685 25.586748-0.565888 35.132148 9.562796 9.543354 25.321712 9.290597 35.196617-0.567935L512.01228 418.747385l157.098991 156.794046c9.875928 9.858532 25.63382 10.111289 35.196617 0.567935 9.562796-9.5454 9.31004-25.27464-0.565888-35.132148l-157.101037-156.790976L702.846606 228.281449z"  horiz-adv-x="1024" />

    
    <glyph glyph-name="yuyinicon" unicode="&#58916;" d="M488.588801 211.665003l42.778292 0c94.504374 0 171.114193 76.609819 171.114193 171.114193L702.481286 660.839119c0 94.504374-76.609819 171.114193-171.114193 171.114193l-42.778292 0c-94.504374 0-171.114193-76.609819-171.114193-171.114193l0-278.059923C317.474608 288.274822 394.084427 211.665003 488.588801 211.665003zM809.42804 425.557488c-11.813047 0-21.389146-9.576099-21.389146-21.389146 0-153.568584-124.492362-278.059923-278.059923-278.059923S231.917 250.599757 231.917 404.168342c0 11.813047-9.576099 21.389146-21.389146 21.389146s-21.389146-9.576099-21.389146-21.389146c0-170.004929 132.230604-309.10294 299.450093-320.112692l0-129.062448c0-11.813047 9.576099-21.389146 21.389146-21.389146s21.389146 9.576099 21.389146 21.389146L531.367093 84.05565c167.219489 11.009751 299.450093 150.10674 299.450093 320.112692C830.817186 415.981389 821.241087 425.557488 809.42804 425.557488z"  horiz-adv-x="1024" />

    
    <glyph glyph-name="paizhaoic" unicode="&#58919;" d="M680.043276 774.095238c5.544229-9.974248 12.522057-25.031924 17.232457-35.196343C718.833371 692.372724 737.453105 652.190476 780.190476 652.190476l170.666667 0c14.811429 0 24.380952-9.752381 24.380952-24.84419l0-606.249448c0-14.991848-11.961295-27.189638-26.667886-27.189638L75.42979-6.0928C60.725638-6.095238 48.761905 6.102552 48.761905 21.0944L48.761905 627.346286C48.761905 642.438095 58.331429 652.190476 73.142857 652.190476l170.666667 0c42.873905 0 61.301029 40.267581 82.639238 86.893714 4.622629 10.103467 11.461486 25.046552 16.925257 35.011048L680.043276 774.095238M512 140.190476c59.552914 0 114.98301 22.810819 156.086857 64.234057 40.847848 41.1648 63.3344 96.394971 63.319771 155.504152 0 122.858057-96.906971 219.094552-220.691505 219.094552C388.39101 578.962286 292.571429 482.72579 292.571429 359.928686 292.571429 236.712229 388.956648 140.190476 512 140.190476M698.453333 822.857143c-65.18979 0-308.475124 0-373.642971 0C298.237562 822.857143 267.595581 700.952381 243.809524 700.952381c-86.857143 0-170.666667 0-170.666667 0C31.47581 700.952381 0 669.2864 0 627.346286l0-606.249448C0-20.857905 33.762743-54.857143 75.42979-54.857143l873.142857 0c41.667048 0 75.42979 33.999238 75.42979 75.951543L1024.002438 627.346286C1024 669.2864 992.52419 700.952381 950.857143 700.952381c0 0-83.499886 0-170.666667 0C756.358095 700.952381 725.048076 822.857143 698.453333 822.857143L698.453333 822.857143zM512 188.952381c-96.404724 0-170.666667 75.856457-170.666667 170.976305 0 95.132038 72.99901 170.286324 169.403733 170.332648 0.017067 0 0.029257 0 0.046324 0 96.285257 0 171.858895-75.207924 171.858895-170.332648C682.666667 264.808838 608.380343 188.952381 512 188.952381L512 188.952381z"  horiz-adv-x="1025" />

    
    <glyph glyph-name="qingchuic" unicode="&#58908;" d="M574.357333 384.004267 1011.0592 820.706133c17.258667 17.211733 17.258667 45.154133 0 62.370133-17.207467 17.233067-45.1328 17.233067-62.3488 0L511.995733 446.370133 75.298133 883.076267c-17.211733 17.233067-45.137067 17.233067-62.391467 0-17.211733-17.211733-17.211733-45.154133 0-62.370133l436.718933-436.701867L12.906667-52.7104c-17.211733-17.211733-17.211733-45.137067 0-62.3488 17.2544-17.2544 45.175467-17.2544 62.391467 0l436.6976 436.701867 436.714667-436.701867c17.216-17.2544 45.141333-17.2544 62.3488 0 17.258667 17.211733 17.258667 45.137067 0 62.3488L574.357333 384.004267z"  horiz-adv-x="1025" />

    
    <glyph glyph-name="yuyinic" unicode="&#58910;" d="M870.4 384c0 14.13888-11.46368 25.6-25.6 25.6s-25.6-11.46112-25.6-25.6c0-169.39008-137.8048-307.2-307.18976-307.2C342.61248 76.8 204.8 214.60992 204.8 384c0 14.13888-11.46112 25.6-25.6 25.6s-25.6-11.46112-25.6-25.6c0-189.02784 147.10528-344.32512 332.84608-357.4784-0.01024-0.30976-0.04608-0.61184-0.04608-0.9216l0-128c0-14.13632 11.46112-25.6 25.6-25.6 14.13632 0 25.6 11.46368 25.6 25.6l0 128c0 0.30976-0.03584 0.61184-0.04864 0.91904C723.29472 39.66464 870.4 194.96704 870.4 384zM512 153.6c127.25248 0 230.4 103.15008 230.4 230.4L742.4 665.6c0 127.24992-103.15008 230.4-230.4 230.4-127.24992 0-230.4-103.15008-230.4-230.4l0-281.6C281.6 256.75008 384.75008 153.6 512 153.6zM332.8 665.6c0 98.81088 80.38912 179.2 179.2 179.2 98.81088 0 179.2-80.38912 179.2-179.2l0-281.6c0-98.81344-80.38912-179.2-179.2-179.2-98.81088 0-179.2 80.38656-179.2 179.2L332.8 665.6z"  horiz-adv-x="1024" />

    
    <glyph glyph-name="biaoqianxin" unicode="&#58943;" d="M341.333333 554.666667l42.666667 0L384 597.333333l42.666667 0L426.666667 640 298.666667 640l0-42.666667 42.666667 0L341.333333 554.666667zM810.666667 853.333333 213.333333 853.333333c-47.125333 0-85.333333-38.208-85.333333-85.333333l0-597.333333c0-47.125333 38.208-85.333333 85.333333-85.333333l128 0 0-170.666667 213.333333 170.666667 256 0c47.125333 0 85.333333 38.208 85.333333 85.333333L896 768C896 815.125333 857.792 853.333333 810.666667 853.333333zM213.333333 554.666667l85.333333 0L298.666667 597.333333 256 597.333333 256 640 213.333333 640 213.333333 682.666667l128 0L341.333333 725.333333 298.666667 725.333333 298.666667 768l42.666667 0 0-42.666667 42.666667 0 0-42.666667 128 0 0-42.666667-42.666667 0 0-42.666667-42.666667 0 0-42.666667 85.333333 0 0-42.666667L213.333333 512 213.333333 554.666667zM213.333333 298.666667l42.666667 0 0 42.666667 42.666667 0 0-42.666667L256 298.666667l0-42.666667L213.333333 256 213.333333 298.666667zM384 170.666667 256 170.666667l0 42.666667 85.333333 0 0 170.666667L213.333333 384l0 42.666667 128 0 0 42.666667 42.666667 0 0-42.666667 128 0 0-42.666667L384 384 384 170.666667zM810.666667 512l-42.666667 0 0-341.333333-42.666667 0L725.333333 512l-128 0 0-256-42.666667 0 0-42.666667-42.666667 0 0-42.666667-42.666667 0 0 42.666667 42.666667 0 0 42.666667-42.666667 0 0 42.666667-42.666667 0 0 42.666667 42.666667 0 0-42.666667 42.666667 0 0-42.666667 42.666667 0L554.666667 725.333333l128 0L682.666667 768l85.333333 0 0-42.666667-85.333333 0 0-42.666667-85.333333 0 0-128 213.333333 0L810.666667 512z"  horiz-adv-x="1024" />

    
    <glyph glyph-name="duigoufinal" unicode="&#58956;" d="M1002.108343 622.189714l-581.229714-579.957029c-1.053257-1.141029-1.338514-2.574629-2.479543-3.620571-20.984686-20.933486-51.799771-25.6-77.458286-14.467657-9.918171 3.613257-19.265829 8.952686-27.282286 16.852114-2.574629 2.567314-3.715657 5.902629-5.814857 8.747886L20.604343 336.325486c-27.472457 27.362743-27.472457 71.811657 0 99.1744 27.472457 27.413943 72.023771 27.413943 99.496229 0l241.532343-240.983771 534.5792 533.321143c29.191314 29.169371 76.602514 29.169371 105.888914 0C1031.299657 698.667886 1031.299657 651.359086 1002.108343 622.189714z"  horiz-adv-x="1024" />

    
    <glyph glyph-name="erjiicon" unicode="&#58958;" d="M512 874.666667C252.791467 874.666667 42.666667 664.541867 42.666667 405.333333l0-256c0-14.7712 7.5264-27.797333 18.948267-35.460267 22.0288-42.683733 61.5424-74.8032 109.051733-87.0528L170.666667 21.333333l85.333333 0c23.560533 0 42.666667 19.1232 42.666667 42.666667l0 256c0 23.581867-19.106133 42.666667-42.666667 42.666667L170.666667 362.666667l0-5.457067c-15.125333-3.908267-29.461333-9.783467-42.666667-17.425067L128 405.333333l8.520533 0c0 207.377067 168.1024 375.5008 375.479467 375.5008 207.3344 0 375.458133-168.123733 375.458133-375.5008L896 405.333333l0-65.5488c-13.205333 7.6416-27.537067 13.5168-42.666667 17.425067L853.333333 362.666667l-85.333333 0c-23.581867 0-42.666667-19.0848-42.666667-42.666667l0-256c0-23.543467 19.0848-42.666667 42.666667-42.666667l85.333333 0 0 5.486933c47.505067 12.2496 87.022933 44.3648 109.047467 87.044267 11.4304 7.658667 18.952533 20.693333 18.952533 35.4688l0 256C981.333333 664.541867 771.208533 874.666667 512 874.666667z"  horiz-adv-x="1024" />

    
    <glyph glyph-name="shangjiantou" unicode="&#58960;" d="M921.6 503.21408 586.49088 824.59136 586.496 824.59648 512.0256 896 102.4 503.21408 176.8704 431.81056 460.80512 704.07168 460.80512-128 566.12864-128 566.12864 701.29664 847.13472 431.81056Z"  horiz-adv-x="1024" />

    
    <glyph glyph-name="dingwei" unicode="&#58892;" d="M512 566.848C411.008 566.848 329.152 484.992 329.152 384S411.008 201.152 512 201.152 694.848 283.008 694.848 384 612.992 566.848 512 566.848zM512 274.24C451.392 274.24 402.304 323.456 402.304 384c0 60.608 49.152 109.696 109.696 109.696 60.544 0 109.696-49.088 109.696-109.696C621.696 323.456 572.544 274.24 512 274.24zM512 896C229.248 896 0 666.816 0 384s229.248-512 512-512c282.816 0 512 229.184 512 512S794.816 896 512 896zM548.544-53.568l0 71.872c0 20.16-16.384 36.544-36.544 36.544s-36.544-16.384-36.544-36.544l0-71.872c-213.376 17.536-383.424 187.712-401.088 401.024l71.936 0c20.16 0 36.544 16.32 36.544 36.544S166.464 420.544 146.304 420.544L74.368 420.544c17.6 213.376 187.712 383.424 401.088 401.024l0-71.872c0-20.224 16.384-36.608 36.544-36.608s36.544 16.384 36.544 36.608L548.544 821.568c213.376-17.6 383.424-187.648 401.088-401.024l-71.936 0c-20.16 0-36.544-16.32-36.544-36.544s16.384-36.544 36.544-36.544l71.936 0C932.032 134.144 761.856-36.032 548.544-53.568z"  horiz-adv-x="1024" />

    
    <glyph glyph-name="fenxiang" unicode="&#58912;" d="M914.304 18.24c0-20.224-16.704-36.544-36.928-36.544L146.24-18.304c-20.224 0-36.544 16.32-36.544 36.544L109.696 749.312c0 20.16 16.32 36.992 36.544 36.992l256 0L402.24 859.456 109.696 859.456c-40.384 0-73.152-33.216-73.152-73.6l0-804.16c0-40.384 32.768-73.152 73.152-73.152L913.92-91.456c40.384 0 73.472 32.768 73.472 73.152L987.392 274.304l-73.152 0L914.24 18.24zM950.72 859.584c-0.576 0-1.088-0.128-1.728-0.128l-291.136 0c-20.096 0-36.48-16.32-36.48-36.544s16.384-36.608 36.48-36.608l214.208 0c-156.992-78.72-277.824-220.608-330.688-391.232C540.288 391.36 540.352 384 540.352 384 540.48 378.56 542.016 373.12 544.64 368.256c6.08-11.328 18.048-19.712 31.872-19.712 12.736 0 23.872 7.232 30.336 17.28C610.304 371.264 614.272 384 614.272 384c49.472 149.952 157.44 272.96 300.032 341.568l0-195.904c0-20.224 16.32-36.672 36.544-36.672s36.544 16.448 36.544 36.672l0 293.12C987.456 843.008 971.008 859.584 950.72 859.584z"  horiz-adv-x="1024" />

    
    <glyph glyph-name="sousuo" unicode="&#58911;" d="M1013.44-64.896l-238.656 239.232c64.704 76.288 103.616 175.04 103.616 282.88C878.4 699.584 681.728 896 439.168 896 196.608 896 0 699.584 0 457.344c0-242.24 196.608-438.656 439.168-438.656 107.904 0 206.656 38.784 283.072 103.36l238.72-239.424c14.336-14.272 37.504-14.144 52.032 0.448C1027.52-102.528 1027.776-79.104 1013.44-64.896zM73.216 457.344c0 201.92 163.84 365.568 366.016 365.568s366.016-163.648 366.016-365.568c0-201.856-163.904-365.568-366.016-365.568S73.216 255.424 73.216 457.344z"  horiz-adv-x="1025" />

    
    <glyph glyph-name="weizhi" unicode="&#58891;" d="M512-128c0 0-438.848 342.72-438.848 585.152C73.152 699.52 269.632 896 512 896s438.848-196.48 438.848-438.848C950.848 214.72 512-128 512-128zM512 822.848c-201.984 0-365.76-165.76-365.76-370.304C146.24 248.064 512-18.304 512-18.304s365.696 266.368 365.696 470.848C877.696 657.088 713.856 822.848 512 822.848zM512 274.304c-100.992 0-182.848 81.856-182.848 182.848S411.008 640 512 640s182.848-81.856 182.848-182.848S612.992 274.304 512 274.304zM512 566.848c-60.608 0-109.696-49.088-109.696-109.696C402.304 396.544 451.392 347.52 512 347.52c60.48 0 109.696 49.088 109.696 109.632C621.696 517.696 572.48 566.848 512 566.848z"  horiz-adv-x="1024" />

    
    <glyph glyph-name="paiming" unicode="&#58920;" d="M36.544-128l0 73.152L36.544 493.696c0 40.384 32.768 73.152 73.152 73.152l219.456 0L329.152 749.696c0 40.384 32.768 73.152 73.152 73.152l219.456 0c40.384 0 73.152-32.768 73.152-73.152L694.912 384l219.392 0c40.448 0 73.216-32.768 73.216-73.152l0-365.76L987.52-128 36.544-128zM329.152 457.152c0 20.16-16.384 36.544-36.608 36.544L146.304 493.696c-20.224 0-36.544-16.384-36.544-36.544l0-512 219.456 0L329.216 457.152zM621.76 310.848 621.76 713.152c0 20.16-16.384 36.544-36.608 36.544L438.848 749.696c-20.16 0-36.544-16.384-36.544-36.544l0-768 219.456 0L621.76 310.848zM914.24 274.24c0 20.224-16.32 36.608-36.48 36.608l-146.304 0c-20.16 0-36.544-16.384-36.544-36.608l0-329.152 219.392 0L914.304 274.24z"  horiz-adv-x="1024" />

    
    <glyph glyph-name="yuding" unicode="&#58951;" d="M914.24 822.848l-182.784 0C731.456 863.232 698.688 896 658.24 896L365.696 896C325.312 896 292.544 863.232 292.544 822.848L109.696 822.848c-40.384 0-73.152-32.768-73.152-73.152l0-804.608C36.544-95.232 69.312-128 109.696-128l804.544 0c40.448 0 73.216 32.768 73.216 73.152L987.456 749.696C987.456 790.08 954.688 822.848 914.24 822.848zM402.304 822.848l219.456 0c20.096 0 36.48-16.32 36.48-36.544 0-20.16-16.384-36.544-36.48-36.544L402.304 749.76c-20.224 0-36.544 16.384-36.544 36.544C365.696 806.528 382.08 822.848 402.304 822.848zM914.24-18.24c0-20.224-16.384-36.608-36.48-36.608L146.304-54.848c-20.224 0-36.544 16.384-36.544 36.608L109.76 713.152c0 20.16 16.32 36.544 36.544 36.544l146.304 0c0-40.384 32.768-73.152 73.152-73.152l292.544 0c40.448 0 73.216 32.768 73.216 73.152l146.304 0c20.096 0 36.48-16.384 36.48-36.544L914.304-18.24zM703.616 482.688l-266.624-266.624-120.96 120.96c-13.696 13.696-35.968 13.696-49.6 0l0 0c-13.696-13.696-13.696-35.968 0-49.6l140.48-140.48c1.6-2.816 3.584-5.44 5.952-7.872 7.424-7.36 17.152-11.008 26.88-10.88C448 128.064 456.256 130.88 462.912 136.576c1.024 0.832 2.048 1.664 3.008 2.688l290.56 290.56c14.72 14.656 14.72 38.464 0.192 53.056S718.336 497.344 703.616 482.688z"  horiz-adv-x="1024" />

    
    <glyph glyph-name="luxian" unicode="&#58904;" d="M839.616 778.112c-20.096-146.816-113.024-670.592-133.12-783.744-3.648-3.264-7.552-6.4-11.136-8.768-0.768 1.28-1.536 2.752-2.432 4.48-49.536 95.744-148.416 270.656-152.576 278.08L523.264 298.368 489.024 304.256 183.68 356.672C184 357.632 184.32 358.528 184.704 359.424c0.128 0.384 0.32 0.768 0.512 1.152l3.84 2.496 624.704 402.048C820.864 769.408 830.336 774.208 839.616 778.112M867.648 859.456c-40.768 0-92.992-32.512-92.992-32.512L149.44 424.512 136.832 416.384c0 0-12.096-13.376-14.464-17.792-1.984-3.84-3.712-7.552-5.248-11.136C98.56 342.656 115.328 312.512 126.336 299.008c4.352-5.312 23.616-10.752 23.616-10.752l326.656-56.064c0 0 101.76-180.032 151.36-275.712 18.496-35.904 40.64-47.936 61.888-47.936 44.032 0 84.736 51.328 84.736 51.328s120.64 674.752 139.136 820.864C921.472 841.856 897.6 859.456 867.648 859.456L867.648 859.456z"  horiz-adv-x="1024" />

    
    <glyph glyph-name="shijian" unicode="&#58948;" d="M658.304 420.544 548.48 420.544 548.48 640c0 20.16-16.32 36.544-36.48 36.544S475.456 660.16 475.456 640l0-256c0-20.16 16.384-36.48 36.544-36.48l146.304 0c20.16 0 36.544 16.32 36.544 36.48S678.528 420.544 658.304 420.544zM512 896C229.248 896 0 666.752 0 384s229.248-512 512-512c282.816 0 512 229.248 512 512S794.816 896 512 896zM512-54.848c-242.368 0-438.848 196.48-438.848 438.848S269.632 822.848 512 822.848 950.848 626.368 950.848 384 754.368-54.848 512-54.848z"  horiz-adv-x="1024" />

    
    <glyph glyph-name="mv" unicode="&#58945;" d="M859.456 525.696c-17.472 9.792-39.872 3.968-49.92-13.12l-78.08-157.696-78.08 157.696c-10.048 17.088-32.448 22.848-49.984 13.12C585.92 515.776 580.032 494.08 590.08 477.056l107.712-217.6C698.24 258.24 698.88 257.152 699.52 256l0.256-0.64c0.064-0.192 0.192-0.32 0.32-0.512 0.256-0.448 0.576-0.832 0.896-1.28 0.384-0.64 0.768-1.216 1.28-1.728 0.192-0.32 0.448-0.576 0.64-0.896 0.64-0.64 1.152-1.344 1.728-1.92 0.128-0.128 0.256-0.256 0.384-0.384 0.704-0.768 1.408-1.408 2.176-2.112l0 0c2.816-2.368 5.952-4.288 9.216-5.824 0.192-0.064 0.32-0.128 0.512-0.192 0.96-0.384 1.792-0.768 2.688-1.088 0.384-0.128 0.768-0.192 1.152-0.32 0.768-0.192 1.472-0.384 2.24-0.576 0.512-0.128 0.96-0.192 1.344-0.32 0.704-0.128 1.344-0.256 1.92-0.32 0.576-0.128 1.152-0.128 1.664-0.192 0.64-0.064 1.216-0.128 1.792-0.192 0.64 0 1.216 0 1.728 0 0.64 0 1.28 0 1.728 0 0.576 0.064 1.216 0.128 1.792 0.192 0.576 0.064 1.152 0.064 1.664 0.192 0.704 0.064 1.344 0.192 1.92 0.32 0.512 0.128 1.024 0.192 1.472 0.32 0.768 0.192 1.344 0.384 2.112 0.576 0.384 0.064 0.768 0.192 1.152 0.32 0.896 0.32 1.728 0.64 2.624 1.024 0.192 0.064 0.448 0.192 0.64 0.256 1.088 0.512 2.048 1.024 3.008 1.536 0 0 0.128 0 0.128 0.064l0 0c1.024 0.576 2.048 1.28 3.008 1.856 0.064 0.064 0.128 0.128 0.192 0.128 0.832 0.64 1.664 1.28 2.432 1.792 0.128 0.192 0.384 0.32 0.512 0.448 0.64 0.576 1.152 1.024 1.728 1.536 0.192 0.384 0.576 0.704 0.96 1.024 0.32 0.384 0.64 0.768 1.024 1.152 0.448 0.64 0.96 1.216 1.344 1.792 0.128 0.192 0.32 0.448 0.448 0.704 0.576 0.768 1.152 1.536 1.6 2.432 0 0 0.064 0.064 0.064 0.128l0.128 0.192c0.832 1.344 1.6 2.944 2.24 4.48l107.392 216.96C882.944 494.08 876.928 515.776 859.456 525.696zM950.848 822.848 73.152 822.848C32.704 822.848 0 790.08 0 749.76l0-731.456c0-40.448 32.704-73.216 73.152-73.216l877.76 0c40.384 0 73.152 32.768 73.152 73.216L1024.064 749.76C1024 790.08 991.232 822.848 950.848 822.848zM950.848 54.848c0-20.224-16.384-36.544-36.48-36.544L109.696 18.304c-20.224 0-36.608 16.32-36.608 36.544L73.088 713.152c0 20.16 16.32 36.608 36.608 36.608l804.672 0c20.096 0 36.48-16.448 36.48-36.608L950.848 54.848zM475.776 530.304c-0.128 0-0.256 0-0.32 0-13.312 0-24.896-7.168-31.296-17.728L329.152 397.888 214.144 512.576c-6.4 10.624-17.984 17.728-31.296 17.728-0.128 0-0.256 0-0.384 0C173.12 530.432 163.712 526.912 156.48 519.808c-8.128-8.128-11.52-19.072-10.24-29.568l0-216c0-20.16 16.384-36.48 36.608-36.48 20.16 0 36.544 16.32 36.544 36.48L219.392 406.784 296.32 330.112c1.664-3.136 3.84-6.144 6.464-8.704 7.232-7.296 16.896-10.752 26.368-10.496 9.408-0.256 19.072 3.2 26.304 10.496 2.688 2.624 4.736 5.568 6.4 8.64l76.992 76.736 0-132.544c0-20.16 16.32-36.48 36.544-36.48S512 254.08 512 274.24L512 490.24c1.28 10.496-2.112 21.44-10.24 29.568C494.656 526.912 485.184 530.432 475.776 530.304z"  horiz-adv-x="1025" />

    
    <glyph glyph-name="dianhua" unicode="&#58917;" d="M735.42414-127.040899c-47.635342 0-98.211926 6.138245-138.877802 17.008055-133.506837 35.358851-457.810802 216.820731-552.569966 525.587262-61.638214 176.154855-58.313331 308.191071 10.038589 392.591945 21.419919 26.471183 37.340993 42.264377 54.988448 54.668748C140.525857 884.87443 185.475717 896 242.766007 896 263.098945 896 280.23488 894.657259 290.529229 893.826038c2.813362-0.25576 4.987324-0.51152 6.394006-0.51152 27.749984-0.25576 43.862879-24.616922 67.392819-75.641086 17.135935-37.021293 33.312769-79.28567 37.852513-91.37034 24.169341-63.940056 26.215423-129.606494 26.215423-150.706712 0.25576-1.342741 0.44758-2.621542 0.575461-4.028224C430.749772 548.805495 414.572938 531.030159 387.845994 509.802061 359.520549 487.295161 330.299944 484.226038 310.798227 482.307836c9.399188-39.131314 56.45907-139.389323 126.665251-203.585139 72.124383-65.922198 148.980331-92.393381 195.400812-99.810428 0 0.25576 0 0.51152 0.06394 0.767281 0.959101 22.8266 2.301842 54.349048 21.739619 78.774149 11.44527 14.514393 28.900905 17.455635 51.663565 17.455635 47.443522 0 129.094973-14.706213 203.009678-56.075429 83.058133-46.612301 107.930815-107.802935 110.552357-114.516641 11.06163-29.604246-5.115204-70.781642-48.210802-122.381268-36.190072-43.607118-79.029909-77.942929-114.452701-91.817921C818.674093-123.907836 769.69601-127.040899 735.42414-127.040899zM242.766007 822.916516c-41.369216 0-73.147424-6.841586-91.753981-19.949298-11.63709-8.184327-23.27418-20.013238-40.154355-40.921636C46.789735 683.079613 76.777621 542.79513 113.223453 439.020418l0.44758-1.342741c46.612301-152.560974 155.885857-264.583953 239.26369-331.529191 97.572526-78.454449 202.050578-129.606494 262.346051-145.591508 34.783391-9.271308 78.582329-14.514393 120.143366-14.514393 39.578895 0 73.275304 4.731564 95.078864 13.235592 48.594443 18.990197 112.278739 97.252825 119.120325 123.979769-5.626725 11.12557-26.023603 44.821979-76.024727 72.827724-64.579457 36.062192-133.315017 46.356541-165.348985 46.676241-1.470621-7.992507-1.982142-18.478676-2.301842-26.215423-0.575461-12.468311-1.086981-24.361161-4.283984-35.486731-8.056447-27.622104-29.860006-37.468873-47.571402-37.468873-0.575461 0-1.150921 0-1.726382 0.12788-62.917015 1.982142-169.952669 34.975211-264.136372 121.038526-87.469997 80.05295-159.53044 225.005058-151.537933 279.098345 6.649766 45.07774 48.594443 49.297783 66.561599 51.152045C317.959513 556.478302 330.683584 557.757103 342.384614 567.028411c6.138245 4.859444 10.230409 8.504027 12.851951 11.06163C355.108686 596.504777 352.806844 650.214424 333.752707 700.535248c-21.803559 57.929691-42.456197 102.94349-53.134187 120.782766C271.027512 822.021355 257.9198 822.916516 242.766007 822.916516z"  horiz-adv-x="1024" />

    
    <glyph glyph-name="xihuan" unicode="&#58903;" d="M1024 582.4c0 152.192-123.136 276.032-274.304 276.032-99.328 0-192.704-54.4-237.376-138.496L511.36 719.552 511.168 719.936C466.496 804.032 373.44 858.432 274.112 858.432 122.944 858.432 0 734.592 0 582.4c0-67.52 24.512-132.352 69.248-183.04L68.288 399.232 512-92.352l443.136 491.776L954.88 399.424C999.552 449.984 1024 514.88 1024 582.4zM894.528 446.656l-2.496-2.624 0.384-0.064L512 9.856 131.2 443.968l0.704 0.064L129.472 446.656C95.36 483.456 76.608 531.712 76.608 582.336c0 109.44 88.96 198.464 198.336 198.464 103.616 0 188.48-73.728 197.44-177.536l0.128-0.832 1.664 0 33.536 0 3.712 0 4.992 0 33.536 0L551.68 602.432l0.128 0.832c9.088 103.808 93.888 177.92 197.44 177.92 109.376 0 198.272-89.216 198.272-198.592C947.52 531.904 928.64 483.456 894.528 446.656z"  horiz-adv-x="1024" />

    
    <glyph glyph-name="zhiding" unicode="&#58906;" d="M939.392 8 198.144 749.312l642.688 0c20.16 0 36.544 16.32 36.544 36.544S860.992 822.4 840.832 822.4L114.304 822.4C103.296 824.064 91.84 820.8 83.52 812.48c-8.32-8.32-11.584-19.84-9.92-30.912l0-726.4c0-20.16 16.32-36.544 36.544-36.544s36.544 16.384 36.544 36.544L146.688 697.856l741.312-741.248c14.72-14.848 38.272-15.36 52.48-1.152S954.24-6.72 939.392 8z"  horiz-adv-x="1024" />

    
    <glyph glyph-name="shaixuan" unicode="&#58975;" d="M1022.528 813.312c0.128 0.512 0.256 1.024 0.384 1.472 0 0.128 0 0.192 0.064 0.32 2.816 11.776-0.256 24.64-9.408 33.792-8.128 8.128-19.264 11.52-29.888 10.112L40.448 859.008c-10.688 1.408-21.76-1.984-29.952-10.112C0.704 839.232-2.176 825.28 1.664 812.928 4.032 804.16 9.6 796.736 17.024 791.872L402.368 406.4l0-461.312c0-20.16 16.32-36.544 36.544-36.544 20.16 0 36.544 16.384 36.544 36.544L475.456 420.352c0 12.864-6.656 24.192-16.704 30.656L123.968 785.984l776.128 0L565.312 451.072C555.2 444.544 548.544 433.28 548.544 420.352l0-329.024c0-20.224 16.32-36.544 36.544-36.544 20.16 0 36.48 16.32 36.48 36.544L621.568 406.4l385.344 385.408C1014.528 796.736 1020.096 804.352 1022.528 813.312z"  horiz-adv-x="1024" />

    
    <glyph glyph-name="bofang" unicode="&#58947;" d="M914.24 384c0 0.192 0 0.32 0 0.512 0.064 13.184-6.528 25.984-18.368 33.152L164.736 854.336C147.136 864.832 124.736 858.624 114.624 840.512 110.08 832.384 108.8 823.232 110.336 814.72l0-861.376C108.8-55.232 110.08-64.384 114.624-72.512c10.112-18.112 32.512-24.32 50.048-13.824l731.2 436.672c11.904 7.104 18.432 19.968 18.368 33.152C914.24 383.68 914.24 383.808 914.24 384zM183.36 755.712 805.76 384l-622.4-371.712L183.36 755.712z"  horiz-adv-x="1024" />

    
    <glyph glyph-name="bofangshipin" unicode="&#58961;" d="M512 896C229.248 896 0 666.752 0 384c0-282.752 229.248-512 512-512 282.752 0 512 229.248 512 512C1024 666.752 794.752 896 512 896zM512-54.848c-242.368 0-438.848 196.48-438.848 438.848S269.632 822.848 512 822.848c242.368 0 438.848-196.48 438.848-438.848S754.368-54.848 512-54.848zM768.512 387.52c-0.128 0.576-0.128 1.152-0.256 1.728S768 390.464 767.872 391.104c-0.064 0.512-0.192 1.088-0.32 1.6-0.192 0.704-0.384 1.344-0.576 2.048-0.128 0.384-0.32 0.832-0.448 1.28-0.32 0.832-0.704 1.664-1.024 2.432-0.128 0.256-0.192 0.512-0.32 0.768-0.512 1.024-1.024 1.984-1.6 2.944 0 0.064 0 0.064-0.064 0.128 0 0-0.064 0-0.064 0.064-0.576 0.96-1.216 1.92-1.856 2.816-0.064 0.128-0.128 0.256-0.256 0.384-0.576 0.768-1.152 1.472-1.792 2.176-0.192 0.256-0.448 0.512-0.64 0.768-0.512 0.512-1.024 1.024-1.536 1.472-0.384 0.384-0.768 0.768-1.216 1.152-0.384 0.32-0.768 0.64-1.216 0.896-0.576 0.512-1.216 1.024-1.792 1.408-0.32 0.192-0.576 0.384-0.96 0.64-0.768 0.512-1.472 0.96-2.24 1.408-0.128 0-0.192 0.064-0.256 0.128L421.824 598.528C415.808 601.92 409.216 603.456 402.688 603.392c-0.128 0-0.256 0-0.448 0-0.384 0-0.704 0-1.088-0.064-0.448 0-0.896 0-1.344-0.064C395.136 603.008 390.656 601.792 386.624 599.872 386.368 599.744 386.112 599.68 385.92 599.552 385.344 599.232 384.768 598.912 384.192 598.656c-5.632-3.136-10.56-7.616-14.08-13.44C365.376 577.28 364.096 568.384 365.696 560.128l0-352.256c-1.6-8.256-0.32-17.152 4.416-25.024 3.52-5.888 8.384-10.368 14.08-13.504 0.576-0.32 1.152-0.64 1.728-0.896 0.192-0.128 0.448-0.256 0.704-0.384 4.032-1.856 8.512-3.136 13.248-3.456 0.448-0.064 0.896-0.064 1.344-0.064 0.32 0 0.704-0.064 1.088-0.064 0.128 0 0.256 0.064 0.448 0.064 6.528-0.064 13.12 1.472 19.136 4.864l327.936 182.784c0.064 0.064 0.128 0.128 0.256 0.192 0.768 0.448 1.472 0.96 2.24 1.408 0.384 0.192 0.64 0.384 0.96 0.576 0.64 0.448 1.28 0.96 1.792 1.408 0.448 0.32 0.832 0.576 1.216 0.896 0.448 0.384 0.832 0.768 1.216 1.152 0.576 0.512 1.152 1.024 1.536 1.472 0.192 0.256 0.448 0.512 0.704 0.768 0.64 0.704 1.28 1.408 1.728 2.176 0.128 0.128 0.192 0.256 0.256 0.384 0.704 0.896 1.344 1.856 1.856 2.816 0 0 0.064 0 0.064 0.064 0.064 0.064 0.064 0.128 0.064 0.128 0.64 0.96 1.152 1.92 1.6 2.944 0.128 0.256 0.192 0.512 0.32 0.768 0.32 0.832 0.704 1.6 1.024 2.432 0.192 0.384 0.32 0.832 0.448 1.28 0.192 0.704 0.384 1.344 0.576 2.048 0.128 0.512 0.256 1.088 0.32 1.6C768 377.536 768.128 378.112 768.256 378.752c0.128 0.576 0.128 1.152 0.256 1.728 0 0.576 0.064 1.152 0.128 1.728 0 0.576 0 1.152 0 1.728s0 1.216 0 1.792C768.576 386.368 768.512 386.944 768.512 387.52zM438.848 263.424 438.848 504.576 655.04 384 438.848 263.424z"  horiz-adv-x="1024" />

    
    <glyph glyph-name="xiazai" unicode="&#58895;" d="M482.752 103.104c5.632-5.632 12.544-9.152 19.84-10.432C505.6 91.904 508.8 91.392 512 91.392s6.464 0.512 9.408 1.344c7.232 1.344 14.208 4.8 19.84 10.432l216.192 216.256c14.784 14.848 14.784 39.104 0 54.016-14.912 14.912-39.04 14.912-54.08 0l-154.88-154.752L548.48 859.456C548.48 879.616 532.16 896 512 896S475.456 879.616 475.456 859.456l0-640.832L320.64 373.376c-14.912 14.912-39.104 14.912-54.016 0s-14.912-39.104 0-54.016L482.752 103.104zM987.52 91.52c-20.16 0-36.608-16.448-36.608-36.608l0-109.76L73.152-54.848l0 109.76c0 20.16-16.384 36.608-36.608 36.608C16.384 91.52 0 75.072 0 54.848L0-128l1024 0 0 182.848C1024 75.072 1007.616 91.52 987.52 91.52z"  horiz-adv-x="1025" />

    
    <glyph glyph-name="zhuyi" unicode="&#58976;" d="M512 164.544c-20.16 0-36.544-16.384-36.544-36.544S491.84 91.456 512 91.456 548.544 107.84 548.544 128 532.16 164.544 512 164.544zM512 896C229.184 896 0 666.752 0 384c0-282.816 229.184-512 512-512s512 229.184 512 512C1024 666.752 794.816 896 512 896zM512-54.848c-242.368 0-438.848 196.48-438.848 438.848S269.632 822.848 512 822.848 950.848 626.368 950.848 384 754.368-54.848 512-54.848zM512 676.544C491.84 676.544 475.456 660.16 475.456 640l0-365.76c0-20.16 16.384-36.544 36.544-36.544s36.544 16.384 36.544 36.544L548.544 640C548.544 660.16 532.16 676.544 512 676.544z"  horiz-adv-x="1024" />

    
    <glyph glyph-name="fancheng" unicode="&#58959;" d="M37.184 493.12l950.272 0C1007.616 493.12 1024 509.504 1024 529.664c0 3.264-0.512 6.464-1.344 9.408-1.344 7.232-4.864 14.208-10.496 19.84L796.16 775.04c-14.912 14.912-39.104 14.912-54.08 0-14.848-14.848-14.848-39.104 0-54.016l154.752-154.816L37.184 566.208c-20.224 0-36.544-16.384-36.544-36.544S16.96 493.12 37.184 493.12zM987.456 273.664 44.992 273.664C33.088 275.84 20.352 272.32 11.2 263.104c-14.912-14.912-14.912-39.104 0-54.08l216.064-216.128c14.912-14.912 39.04-14.912 54.016 0 14.912 14.848 14.912 39.04 0 54.016l-153.472 153.6 859.712 0c20.16 0 36.544 16.384 36.544 36.544S1007.616 273.664 987.456 273.664z"  horiz-adv-x="1024" />

    
    <glyph glyph-name="genghuan" unicode="&#58914;" d="M987.456 822.848c-20.16 0-36.544-16.384-36.544-36.544l0-138.816C861.184 796.224 697.984 896 512 896 229.696 896 0 666.304 0 384s229.696-512 512-512c148.864 0 290.112 64.64 387.52 177.344 13.248 15.232 11.52 38.4-3.776 51.584s-38.4 11.52-51.648-3.776c-83.52-96.64-204.48-152.064-332.096-152.064-241.984 0-438.848 196.864-438.848 438.848S270.016 822.848 512 822.848 950.848 625.984 950.848 384c0-20.16 16.384-36.544 36.544-36.544S1024 363.84 1024 384L1024 786.304C1024 806.464 1007.616 822.848 987.456 822.848z"  horiz-adv-x="1024" />

    
    <glyph glyph-name="shuoming" unicode="&#58915;" d="M512 201.152 256 201.152c-20.224 0-36.544-16.384-36.544-36.48C219.456 144.448 235.776 128 256 128l256 0c20.16 0 36.48 16.384 36.48 36.48C548.48 184.704 532.16 201.152 512 201.152zM914.304 896 109.696 896C69.312 896 36.544 863.232 36.544 822.848l0-877.696C36.544-95.232 69.312-128 109.696-128l804.608 0c40.384 0 73.216 32.768 73.216 73.152L987.52 822.848C987.52 863.232 954.688 896 914.304 896zM914.304-18.304c0-20.16-16.448-36.544-36.608-36.544L146.304-54.848c-20.224 0-36.544 16.384-36.544 36.544L109.76 786.304c0 20.224 16.32 36.544 36.544 36.544l731.392 0c20.16 0 36.608-16.32 36.608-36.544L914.304-18.304zM768 640 256 640C235.776 640 219.456 623.616 219.456 603.456c0-20.224 16.32-36.608 36.544-36.608l512 0c20.096 0 36.48 16.384 36.48 36.608C804.48 623.616 788.096 640 768 640zM768 420.544 256 420.544C235.776 420.544 219.456 404.16 219.456 384S235.776 347.52 256 347.52l512 0c20.096 0 36.48 16.32 36.48 36.48S788.096 420.544 768 420.544z"  horiz-adv-x="1024" />

    
    <glyph glyph-name="yinpin" unicode="&#58978;" d="M574.656 850.048C563.52 861.184 546.752 863.232 533.568 856.192 527.104 853.312 521.6 848.512 517.824 842.624L242.048 566.912 73.152 566.912C32.768 566.912 0 534.144 0 493.696l0-219.456c0-40.384 32.768-73.152 73.152-73.152l168.896 0 275.776-275.776c3.84-5.952 9.28-10.688 15.744-13.568 13.248-7.04 29.952-4.992 41.088 6.144 6.144 6.208 9.472 14.08 10.112 22.144 0.256 1.6 0.384 3.328 0.384 5.056L585.152 822.912c0 1.664-0.128 3.392-0.384 4.992C584.128 836.032 580.8 843.904 574.656 850.048zM512 30.016 278.208 263.808C272 269.952 264.064 273.344 256 273.856L256 274.24 109.696 274.24c-20.224 0-36.544 16.384-36.544 36.544L73.152 457.152c0 20.16 16.32 36.544 36.544 36.544L256 493.696 256 494.08c8.064 0.576 16 3.968 22.208 10.112L512 738.048 512 30.016zM668.992 167.872c6.976-6.4 15.808-9.472 24.576-9.472 9.92 0 19.904 4.032 27.136 12.032 54.848 60.544 85.12 139.072 85.12 220.864 0 79.36-28.672 156.032-80.704 215.872-13.248 15.232-36.288 16.896-51.584 3.648s-16.896-36.352-3.648-51.648c40.448-46.528 62.656-106.112 62.656-167.872 0-63.616-23.488-124.672-66.176-171.776C652.864 204.544 654.08 181.44 668.992 167.872zM716.48 852.288c-18.496 8.128-40.064-0.384-48.128-18.88-8.128-18.496 0.384-40.064 18.88-48.128 160.128-69.888 263.616-227.904 263.616-402.496 0-175.36-104.064-333.568-265.088-403.136-18.56-8-27.072-29.504-19.072-48.064 5.952-13.824 19.456-22.08 33.536-22.08 4.864 0 9.728 0.96 14.528 3.008C902.656-6.4 1024 178.176 1024 382.784 1024 586.56 903.296 770.816 716.48 852.288z"  horiz-adv-x="1024" />

    
    <glyph glyph-name="shuaxin" unicode="&#58890;" d="M895.744 100.928c-15.232 13.184-38.4 11.52-51.648-3.84-83.52-96.64-204.544-152-332.096-152-241.984 0-438.848 196.8-438.848 438.784 0 3.776-0.576 7.424-1.664 10.88C66.88 409.664 52.928 420.48 36.544 420.48c-16.384 0-30.272-10.752-34.88-25.6C0.576 391.424 0 387.776 0 384l0-402.304c0-20.16 16.384-36.544 36.544-36.544 20.224 0 36.608 16.384 36.608 36.544l0 138.88C162.816-28.224 325.952-128 512-128c148.864 0 290.048 64.64 387.52 177.344C912.704 64.64 910.976 87.744 895.744 100.928zM987.52 822.848c-20.16 0-36.608-16.384-36.608-36.544l0-138.816C861.184 796.224 698.048 896 512 896 363.136 896 221.888 831.36 124.48 718.656c-13.248-15.296-11.52-38.4 3.776-51.584 15.296-13.184 38.4-11.52 51.584 3.776C263.296 767.424 384.448 822.848 512 822.848c241.984 0 438.848-196.864 438.848-438.848 0-3.84 0.576-7.424 1.536-10.88 4.608-14.848 18.496-25.6 34.944-25.6 16.384 0 30.4 10.752 35.008 25.6C1023.424 376.576 1024 380.16 1024 384L1024 786.304C1024 806.464 1007.616 822.848 987.52 822.848z"  horiz-adv-x="1025" />

    
    <glyph glyph-name="dianzan-copy" unicode="&#58921;" d="M914.24 530.304 638.976 530.304c35.136 52.288 55.872 115.072 55.872 182.848 0 12.416 1.344 24.576 0 36.544L694.848 786.304C694.848 846.848 645.76 896 585.152 896 524.544 896 475.456 846.848 475.456 786.304l0-36.416C459.264 638.016 367.744 546.496 256 530.304c-40.384 0-73.152-32.768-73.152-73.152l0-438.912c0-40.384 32.768-73.152 73.152-73.152l548.544 0c40.448 0 73.216 32.768 73.216 73.152l109.696 438.912C987.456 497.536 954.688 530.304 914.24 530.304zM804.544 54.848c0-20.224-16.32-36.608-36.544-36.608L292.544 18.24C272.32 18.24 256 34.624 256 54.848L256 459.52c152.448 16.896 275.584 137.728 292.544 290.176l0 0L548.544 786.304c0 20.16 16.384 36.544 36.544 36.544 20.224 0 36.608-16.384 36.608-36.544l0-36.608c0 0 0-24 0-36.544 0-72.32-31.616-137.216-79.936-183.488L542.08 529.664C524.992 526.656 512 511.68 512 493.696c0-20.16 16.32-36.544 36.544-36.544l329.216 0c20.16 0 36.48-16.384 36.48-36.544L804.544 54.848zM73.152 493.696c-20.224 0-36.608-16.32-36.608-36.544l0-475.392c0-20.224 16.384-36.608 36.608-36.608 20.16 0 36.544 16.384 36.544 36.608L109.696 457.152C109.696 477.376 93.312 493.696 73.152 493.696z"  horiz-adv-x="1024" />

    
    <glyph glyph-name="tianjia2-copy" unicode="&#58888;" d="M950.848 420.544 548.48 420.544 548.48 822.848c0 20.224-16.32 36.608-36.48 36.608S475.456 843.072 475.456 822.848l0-402.304L73.152 420.544C52.928 420.544 36.544 404.16 36.544 384s16.384-36.48 36.608-36.48l402.304 0 0-402.368c0-20.096 16.384-36.48 36.544-36.48s36.48 16.384 36.48 36.48L548.48 347.52l402.368 0c20.096 0 36.48 16.32 36.48 36.48S971.072 420.544 950.848 420.544z"  horiz-adv-x="1024" />

    
    <glyph glyph-name="tianjia-copy-copy" unicode="&#58962;" d="M512 896C229.248 896 0 666.752 0 384c0-282.752 229.248-512 512-512 282.752 0 512 229.248 512 512C1024 666.752 794.752 896 512 896zM512-54.848c-242.368 0-438.848 196.48-438.848 438.848 0 242.368 196.48 438.848 438.848 438.848S950.848 626.368 950.848 384C950.848 141.632 754.368-54.848 512-54.848zM728.96 420.672l-180.864 0L548.096 601.472c0 21.376-16.384 38.72-36.608 38.72S474.752 622.848 474.752 601.472l0-180.864L294.464 420.608C273.088 420.672 255.744 404.224 255.744 384c0-20.224 17.344-36.608 38.72-36.608l180.288 0 0-180.352c0-21.376 16.448-38.656 36.672-38.656s36.608 17.344 36.608 38.656L548.032 347.392l180.864 0c21.376 0 38.656 16.384 38.656 36.608C767.616 404.224 750.336 420.608 728.96 420.672z"  horiz-adv-x="1024" />

    
    <glyph glyph-name="tongzhi" unicode="&#58957;" d="M987.456 344.704l-256 0c-20.16 0-36.544 17.536-36.544 39.296s16.384 39.296 36.544 39.296l256 0C1007.616 423.296 1024 405.76 1024 384S1007.616 344.704 987.456 344.704zM712.768 586.496c-17.344-11.84-39.552-4.8-49.6 15.744-9.984 20.48-4.032 46.784 13.312 58.624l220.032 150.208c17.344 11.84 39.552 4.8 49.536-15.744 9.984-20.48 4.032-46.72-13.248-58.624L712.768 586.496zM574.656-117.184c-10.688-11.456-26.368-13.696-39.296-7.232-6.208 2.56-11.2 7.168-15.168 12.672l-278.144 299.136L73.152 187.392C32.768 187.392 0 222.592 0 265.984L0 502.016c0 43.456 32.768 78.656 73.152 78.656l168.896 0 278.144 299.072C524.16 885.312 529.216 889.856 535.424 892.48c12.928 6.4 28.608 4.16 39.232-7.232C581.632 877.696 584.96 867.84 584.768 857.984c0.064-0.704 0.384-1.344 0.384-1.984l0-944c0-0.704-0.32-1.28-0.384-1.92C584.96-99.84 581.632-109.696 574.656-117.184zM512 187.392 512 580.672 512 764.672 278.208 513.28C272 506.624 264.064 503.424 256 502.784l0-0.832L109.696 501.952c-20.16 0-36.544-17.536-36.544-39.296l0-157.376c0-21.696 16.384-39.296 36.544-39.296L256 265.984l0-0.832c8.064-0.64 16-3.84 22.208-10.432L512 3.328 512 187.392zM712.768 181.504l220.032-150.208c17.344-11.904 23.232-38.08 13.248-58.624-9.984-20.48-32.256-27.584-49.536-15.68l-220.032 150.208c-17.344 11.84-23.296 38.08-13.312 58.624C673.216 186.304 695.36 193.344 712.768 181.504z"  horiz-adv-x="1024" />

    
    <glyph glyph-name="bofangsanjiaoshixin" unicode="&#58889;" d="M512 896C229.248 896 0 666.752 0 384c0-282.752 229.248-512 512-512 282.816 0 512 229.248 512 512C1024 666.752 794.816 896 512 896zM512-54.848c-242.368 0-438.848 196.48-438.848 438.848S269.632 822.848 512 822.848 950.848 626.368 950.848 384 754.368-54.848 512-54.848zM402.304 164.544 694.848 384 402.304 603.456 402.304 164.544z"  horiz-adv-x="1024" />

    
    <glyph glyph-name="bofangxiaosanjiaoshixin" unicode="&#58966;" d="M402.285714 603.454171 402.285714 164.5824 694.857143 384.014629Z"  horiz-adv-x="1024" />

    
    <glyph glyph-name="icon" unicode="&#58967;" d="M512 896C471.616 896 432.384 891.328 394.688 882.496 168.448 829.504 0 626.432 0 384c0-282.752 229.248-512 512-512s512 229.248 512 512S794.752 896 512 896zM950.848 384c0-69.568-16.64-135.104-45.44-193.536-40.768 24.576-90.176 45.184-146.432 60.736C764.672 293.632 768 337.984 768 384s-3.328 90.368-9.024 132.8c56.256 15.552 105.664 36.224 146.432 60.736C934.208 519.104 950.848 453.568 950.848 384zM73.152 384c0 69.568 17.344 134.656 46.144 193.152 40.64-24.384 89.792-44.864 145.728-60.352C259.328 474.368 256 430.016 256 384s3.328-90.368 9.024-132.8c-56.256-15.552-105.664-36.224-146.432-60.736C89.792 248.896 73.152 314.432 73.152 384zM329.152 384c0 40.448 2.496 79.488 6.72 116.672C390.912 490.56 449.92 484.48 512 484.48s121.088 6.08 176.128 16.192C692.416 463.488 694.848 424.448 694.848 384s-2.496-79.488-6.72-116.672C633.088 277.44 574.08 283.52 512 283.52S390.912 277.44 335.872 267.328C331.584 304.512 329.152 343.552 329.152 384zM871.04 635.904c-33.152-19.712-75.136-36.544-123.904-49.472-18.048 83.584-46.976 155.328-83.072 208.832C748.224 764.096 820.224 708.16 871.04 635.904zM677.184 571.2C626.176 562.56 570.496 557.632 512 557.632S397.824 562.56 346.816 571.2C376.128 719.808 438.976 822.848 512 822.848S647.872 719.808 677.184 571.2zM359.36 794.304c-35.84-53.44-64.576-124.736-82.432-207.872-48.32 12.8-89.984 29.44-122.944 48.896C204.48 707.264 275.52 763.072 359.36 794.304zM152.96 132.096c33.152 19.712 75.136 36.544 123.904 49.472 18.048-83.584 46.976-155.328 83.072-208.832C275.776 3.904 203.776 59.84 152.96 132.096zM346.816 196.8C397.824 205.44 453.504 210.368 512 210.368s114.176-4.928 165.184-13.568c-29.312-148.608-92.16-251.648-165.184-251.648S376.128 48.192 346.816 196.8zM664.064-27.264c36.096 53.504 65.088 125.248 83.072 208.832 48.768-12.928 90.752-29.76 123.904-49.472C820.224 59.84 748.224 3.904 664.064-27.264z"  horiz-adv-x="1024" />

    
    <glyph glyph-name="shouqixiugai-copy" unicode="&#58980;" d="M975.68 190.336l-436.16 437.12c-0.512 0.64-1.088 1.28-1.664 1.856-7.168 7.168-16.512 10.688-25.856 10.688-9.344 0-18.688-3.52-25.856-10.688-0.64-0.64-1.152-1.28-1.728-1.92l-436.096-437.12c-14.208-14.272-14.208-37.376 0-51.648 14.272-14.272 37.312-14.272 51.52 0l412.16 413.12 412.096-413.056c14.272-14.272 37.312-14.272 51.584 0s14.272 37.376-0 51.648z"  horiz-adv-x="1024" />

    
    <glyph glyph-name="zhengque" unicode="&#58972;" d="M914.304 859.456H109.696c-40.384 0-73.152-32.768-73.152-73.152v-804.608c0-40.384 32.768-73.152 73.152-73.152h804.608c40.384 0 73.152 32.768 73.152 73.152V786.304c0 40.384-32.768 73.152-73.152 73.152z m0-841.152a36.608 36.608 0 0 0-36.608-36.608H146.304a36.544 36.544 0 0 0-36.544 36.608V749.696a36.48 36.48 0 0 0 36.544 36.544h731.392c20.224 0 36.608-16.384 36.608-36.544v-731.392z m-210.688 537.536L436.992 289.216l-120.96 120.96a35.072 35.072 0 0 1-49.6-49.6l140.48-140.48a36.992 36.992 0 0 1 32.896-18.688 34.88 34.88 0 0 1 26.112 11.072l290.56 290.56a37.568 37.568 0 0 1 0.192 53.056 37.632 37.632 0 0 1-53.056-0.256z"  horiz-adv-x="1024" />

    
    <glyph glyph-name="cuowu" unicode="&#58973;" d="M914.24 859.456H109.696c-40.384 0-73.152-32.768-73.152-73.152v-804.608c0-40.384 32.768-73.152 73.152-73.152h804.544c40.448 0 73.216 32.768 73.216 73.152V786.304c0 40.384-32.768 73.152-73.216 73.152z m0-841.152a36.48 36.48 0 0 0-36.48-36.608H146.304a36.544 36.544 0 0 0-36.544 36.608V749.696a36.48 36.48 0 0 0 36.544 36.544h731.456a36.48 36.48 0 0 0 36.48-36.544v-731.392z m-349.888 366.72l155.648 155.648a37.12 37.12 0 0 1 0.192 52.544 37.12 37.12 0 0 1-52.544-0.192L512 437.312 356.352 593.024a37.248 37.248 0 0 1-52.544 0.192 37.12 37.12 0 0 1 0.192-52.544l155.648-155.648-156.608-156.608a36.992 36.992 0 1 1 52.352-52.288L512 332.672l156.608-156.608a37.056 37.056 0 1 1 52.288 52.288L564.352 385.024z"  horiz-adv-x="1024" />

    
    <glyph glyph-name="xihuan-shixin" unicode="&#58913;" d="M1024 583.402057c0 152.232229-123.139657 276.081371-274.282057 276.081372-99.338971 0-192.735086-54.3488-237.421714-138.463086l-0.896-0.402286-0.215772 0.402286c-44.679314 84.114286-137.738971 138.463086-237.077943 138.463086C122.967771 859.483429 0 735.634286 0 583.402057c0-67.496229 24.543086-132.3264 69.204114-182.999771l-0.910628-0.0512L512-91.370057l443.154286 491.7248-0.270629 0.0512A276.224 276.224 0 0 1 1024 583.402057z"  horiz-adv-x="1024" />

    
    <glyph glyph-name="bofang-xiaosanjiaoshixin" unicode="&#58905;" d="M768.365714 387.657143c0 0.731429 0 1.097143-0.365714 1.828571 0 0.731429-0.365714 1.097143-0.365714 1.828572 0 0.365714-0.365714 1.097143-0.365715 1.462857 0 0.731429-0.365714 1.462857-0.731428 2.194286 0 0.365714-0.365714 0.731429-0.365714 1.097142-0.365714 0.731429-0.731429 1.462857-1.097143 2.56 0 0.365714-0.365714 0.365714-0.365715 0.731429-0.365714 1.097143-1.097143 1.828571-1.462857 2.925714-0.731429 1.097143-1.097143 1.828571-1.828571 2.925715 0 0 0 0.365714-0.365714 0.365714-0.731429 0.731429-1.097143 1.462857-1.828572 2.194286l-0.731428 0.731428-1.462858 1.462857-1.097142 1.097143-1.097143 1.097143c-0.731429 0.365714-1.097143 1.097143-1.828572 1.462857-0.365714 0.365714-0.731429 0.365714-0.731428 0.731429-0.731429 0.365714-1.462857 1.097143-2.194286 1.462857h-0.365714l-327.68 182.857143c-6.217143 3.291429-12.8 4.754286-19.017143 4.754285h-2.925714c-4.754286-0.365714-9.142857-1.462857-13.165715-3.291428-0.365714 0-0.365714-0.365714-0.731428-0.365714-0.731429-0.365714-1.097143-0.731429-1.828572-0.731429-5.485714-2.925714-10.605714-7.68-13.897143-13.531429-4.754286-8.045714-6.217143-16.822857-4.388571-24.868571V208.457143c-1.462857-8.411429-0.365714-17.188571 4.388571-24.868572 3.657143-5.851429 8.411429-10.24 13.897143-13.531428 0.731429-0.365714 1.097143-0.731429 1.828572-0.731429 0.365714 0 0.365714-0.365714 0.731428-0.365714 4.022857-1.828571 8.411429-3.291429 13.165715-3.291429H403.017143c6.582857 0 13.165714 1.462857 19.017143 4.754286l327.68 182.857143h0.365714c0.731429 0.365714 1.462857 1.097143 2.194286 1.462857 0.365714 0.365714 0.731429 0.365714 0.731428 0.731429 0.731429 0.365714 1.097143 1.097143 1.828572 1.462857l1.097143 1.097143 1.097142 1.097143 1.462858 1.462857 0.731428 0.731428c0.731429 0.731429 1.097143 1.462857 1.828572 2.194286 0 0 0 0.365714 0.365714 0.365714 0.731429 0.731429 1.462857 1.828571 1.828571 2.925715 0.731429 1.097143 1.097143 1.828571 1.462857 2.925714 0 0.365714 0.365714 0.365714 0.365715 0.731428 0.365714 0.731429 0.731429 1.462857 1.097143 2.56 0 0.365714 0.365714 0.731429 0.365714 1.097143 0.365714 0.731429 0.365714 1.462857 0.731428 2.194286 0 0.365714 0.365714 1.097143 0.365715 1.462857 0 0.731429 0.365714 1.097143 0.365714 1.828572s0 1.097143 0.365714 1.828571v1.828571 1.828572 1.828571c0.365714-0.731429 0 0 0 0.731429z"  horiz-adv-x="1024" />

    
    <glyph glyph-name="star" unicode="&#58949;" d="M512 18.651429000000007L195.584-128l34.816 361.728L0 504.868571l337.956571 76.946286L512 896l174.043429-314.148571L1024 504.832l-230.4-271.140571 34.816-361.728z"  horiz-adv-x="1024" />

    


  </font>
</defs>
</svg>
